<svg enable-background="new 0 0 24 24" height="512" viewBox="0 0 24 24" width="512" xmlns="http://www.w3.org/2000/svg"><path d="m11.25 1h-2v1.25c0 .41-.34.75-.75.75s-.75-.34-.75-.75v-1.25h-2c-.41 0-.75.34-.75.75v3.5c0 .41.34.75.75.75h5.5c.41 0 .75-.34.75-.75v-3.5c0-.41-.34-.75-.75-.75z"/><path d="m8.25 7h-2v1.25c0 .41-.34.75-.75.75s-.75-.34-.75-.75v-1.25h-2c-.41 0-.75.34-.75.75v3.5c0 .41.34.75.75.75h5.5c.41 0 .75-.34.75-.75v-3.5c0-.41-.34-.75-.75-.75z"/><path d="m14.25 7h-2v1.25c0 .41-.34.75-.75.75s-.75-.34-.75-.75v-1.25h-2c-.41 0-.75.34-.75.75v3.5c0 .41.34.75.75.75h5.5c.41 0 .75-.34.75-.75v-3.5c0-.41-.34-.75-.75-.75z"/><path d="m8.25 13h-2v1.25c0 .41-.34.75-.75.75s-.75-.34-.75-.75v-1.25h-2c-.41 0-.75.34-.75.75v3.5c0 .41.34.75.75.75h5.5c.41 0 .75-.34.75-.75v-3.5c0-.41-.34-.75-.75-.75z"/><path d="m14.25 13h-2v1.25c0 .41-.34.75-.75.75s-.75-.34-.75-.75v-1.25h-2c-.41 0-.75.34-.75.75v3.5c0 .41.34.75.75.75h5.5c.41 0 .75-.34.75-.75v-3.5c0-.41-.34-.75-.75-.75z"/><path d="m22.5 19.212v-18.212c0-.552-.447-1-1-1s-1 .448-1 1v15h-1.5c-1.654 0-3 1.346-3 3v1h-15c-.553 0-1 .448-1 1s.447 1 1 1h.512c-.003.042-.012.082-.012.125 0 1.034.897 1.875 2 1.875s2-.841 2-1.875c0-.043-.009-.083-.012-.125h11.512c.553 0 1-.448 1-1v-2c0-.551.448-1 1-1h1.5v1.212c-.882.387-1.5 1.265-1.5 2.288 0 1.378 1.121 2.5 2.5 2.5s2.5-1.122 2.5-2.5c0-1.023-.618-1.901-1.5-2.288z"/></svg>