<svg height="512" viewBox="0 0 64 64" width="512" xmlns="http://www.w3.org/2000/svg"><g id="Shopping_Bag-Hands-Bag-Purchase-Buy" data-name="Shopping Bag-Hands-Bag-Purchase-Buy"><path d="m40 21v11h16v-11zm13 4a5 5 0 0 1 -10 0v-2h2v2a3 3 0 0 0 6 0v-2h2z"/><path d="m38 35a2.772 2.772 0 0 0 .18 1h-15.18a1 1 0 0 1 -1-1v-1h16z"/><path d="m42 14v5h-3a1 1 0 0 0 -1 1v12h-16v-18h3v3h2v-3h10v3h2v-3z"/><path d="m56 34v1a1 1 0 0 1 -1 1h-14a1 1 0 0 1 -1-1v-1z"/><path d="m39 14h-2v-5a5 5 0 0 0 -10 0v5h-2v-5a7 7 0 0 1 14 0z"/><path d="m26.656 55.972a12.97 12.97 0 0 1 5.312-.959l4.753.145a10.879 10.879 0 0 0 4.5-.812l18.004-7.356a1.989 1.989 0 0 0 1.086-1.078 2.011 2.011 0 0 0 -.052-1.666 2.13 2.13 0 0 0 -2.7-.9l-9.528 3.892a3.981 3.981 0 0 1 -4.4 2.943l-10.9-1.49.269-1.976 10.9 1.485a2 2 0 1 0 .541-3.963l-12.133-1.655a13.013 13.013 0 0 0 -6.676.846l-1.53.625a14.952 14.952 0 0 0 -3.98 2.411l4.263 10.436z"/><path d="m6.886 51.08 3.97 9.724-5.316.206-3.284-8.039z"/><path d="m23.295 59.512-2.207.896-8.104.314-4.621-11.32 9.25-3.781z"/></g></svg>